<mxfile host="app.diagrams.net" modified="2020-12-29T17:14:02.096Z" agent="5.0 (Macintosh; Intel Mac OS X 10_15_7) AppleWebKit/605.1.15 (KHTML, like Gecko) Version/14.0.1 Safari/605.1.15" etag="NqdExYedtey5_00hg1gA" version="14.1.3" type="github" pages="2">
  <diagram id="cYKwxMik3f744v553Uk9" name="Page-1">
    <mxGraphModel dx="1265" dy="635" grid="1" gridSize="10" guides="1" tooltips="1" connect="1" arrows="1" fold="1" page="1" pageScale="1" pageWidth="827" pageHeight="1169" math="0" shadow="0">
      <root>
        <mxCell id="0" />
        <mxCell id="1" parent="0" />
        <mxCell id="H-BvgIhVuRgIIpX4aUdi-1" value="Student" style="swimlane;childLayout=stackLayout;horizontal=1;startSize=30;horizontalStack=0;rounded=1;fontSize=14;fontStyle=0;strokeWidth=2;resizeParent=0;resizeLast=1;shadow=0;dashed=0;align=center;" vertex="1" parent="1">
          <mxGeometry x="230" y="90" width="160" height="120" as="geometry" />
        </mxCell>
        <mxCell id="H-BvgIhVuRgIIpX4aUdi-2" value="firstName (string)&#xa;lastName (string)&#xa;email (string)&#xa;dateRegistered (date Time)" style="align=left;strokeColor=none;fillColor=none;spacingLeft=4;fontSize=12;verticalAlign=top;resizable=0;rotatable=0;part=1;" vertex="1" parent="H-BvgIhVuRgIIpX4aUdi-1">
          <mxGeometry y="30" width="160" height="90" as="geometry" />
        </mxCell>
        <mxCell id="H-BvgIhVuRgIIpX4aUdi-4" value="Course" style="swimlane;childLayout=stackLayout;horizontal=1;startSize=30;horizontalStack=0;rounded=1;fontSize=14;fontStyle=0;strokeWidth=2;resizeParent=0;resizeLast=1;shadow=0;dashed=0;align=center;" vertex="1" parent="1">
          <mxGeometry x="540" y="90" width="160" height="120" as="geometry" />
        </mxCell>
        <mxCell id="H-BvgIhVuRgIIpX4aUdi-5" value="title (string)&#xa;price (float)&#xa;instructor (string)&#xa;tags (string)" style="align=left;strokeColor=none;fillColor=none;spacingLeft=4;fontSize=12;verticalAlign=top;resizable=0;rotatable=0;part=1;" vertex="1" parent="H-BvgIhVuRgIIpX4aUdi-4">
          <mxGeometry y="30" width="160" height="90" as="geometry" />
        </mxCell>
        <mxCell id="H-BvgIhVuRgIIpX4aUdi-11" value="Enrollment" style="swimlane;childLayout=stackLayout;horizontal=1;startSize=30;horizontalStack=0;rounded=1;fontSize=14;fontStyle=0;strokeWidth=2;resizeParent=0;resizeLast=1;shadow=0;dashed=0;align=center;" vertex="1" parent="1">
          <mxGeometry x="400" y="250" width="160" height="120" as="geometry" />
        </mxCell>
        <mxCell id="H-BvgIhVuRgIIpX4aUdi-12" value="date (dateTime&#xa;price (float)" style="align=left;strokeColor=none;fillColor=none;spacingLeft=4;fontSize=12;verticalAlign=top;resizable=0;rotatable=0;part=1;" vertex="1" parent="H-BvgIhVuRgIIpX4aUdi-11">
          <mxGeometry y="30" width="160" height="90" as="geometry" />
        </mxCell>
        <mxCell id="H-BvgIhVuRgIIpX4aUdi-13" value="" style="edgeStyle=entityRelationEdgeStyle;fontSize=12;html=1;endArrow=ERoneToMany;" edge="1" parent="1">
          <mxGeometry width="100" height="100" relative="1" as="geometry">
            <mxPoint x="394" y="180" as="sourcePoint" />
            <mxPoint x="400" y="290" as="targetPoint" />
          </mxGeometry>
        </mxCell>
        <mxCell id="H-BvgIhVuRgIIpX4aUdi-14" value="" style="edgeStyle=entityRelationEdgeStyle;fontSize=12;html=1;endArrow=ERmany;" edge="1" parent="1" source="H-BvgIhVuRgIIpX4aUdi-5" target="H-BvgIhVuRgIIpX4aUdi-12">
          <mxGeometry width="100" height="100" relative="1" as="geometry">
            <mxPoint x="710" y="180" as="sourcePoint" />
            <mxPoint x="600" y="270" as="targetPoint" />
          </mxGeometry>
        </mxCell>
        <mxCell id="H-BvgIhVuRgIIpX4aUdi-15" value="Logical model" style="text;html=1;align=center;verticalAlign=middle;resizable=0;points=[];autosize=1;" vertex="1" parent="1">
          <mxGeometry x="235" y="10" width="90" height="20" as="geometry" />
        </mxCell>
      </root>
    </mxGraphModel>
  </diagram>
  <diagram id="0XkWQWsvCjh0sc9aW4nI" name="Page-2">
    <mxGraphModel dx="1265" dy="635" grid="1" gridSize="10" guides="1" tooltips="1" connect="1" arrows="1" fold="1" page="1" pageScale="1" pageWidth="827" pageHeight="1169" math="0" shadow="0">
      <root>
        <mxCell id="wGkAwri0zOj3Dd6sU0YV-0" />
        <mxCell id="wGkAwri0zOj3Dd6sU0YV-1" parent="wGkAwri0zOj3Dd6sU0YV-0" />
        <mxCell id="wGkAwri0zOj3Dd6sU0YV-2" value="Passenger" style="swimlane;childLayout=stackLayout;horizontal=1;startSize=30;horizontalStack=0;rounded=1;fontSize=14;fontStyle=0;strokeWidth=2;resizeParent=0;resizeLast=1;shadow=0;dashed=0;align=center;" vertex="1" parent="wGkAwri0zOj3Dd6sU0YV-1">
          <mxGeometry x="30" y="160" width="160" height="120" as="geometry" />
        </mxCell>
        <mxCell id="wGkAwri0zOj3Dd6sU0YV-3" value="Name&#xa;" style="align=left;strokeColor=none;fillColor=none;spacingLeft=4;fontSize=12;verticalAlign=top;resizable=0;rotatable=0;part=1;" vertex="1" parent="wGkAwri0zOj3Dd6sU0YV-2">
          <mxGeometry y="30" width="160" height="90" as="geometry" />
        </mxCell>
        <mxCell id="wGkAwri0zOj3Dd6sU0YV-5" value="Flight" style="swimlane;childLayout=stackLayout;horizontal=1;startSize=30;horizontalStack=0;rounded=1;fontSize=14;fontStyle=0;strokeWidth=2;resizeParent=0;resizeLast=1;shadow=0;dashed=0;align=center;" vertex="1" parent="wGkAwri0zOj3Dd6sU0YV-1">
          <mxGeometry x="380" y="150" width="160" height="120" as="geometry" />
        </mxCell>
        <mxCell id="wGkAwri0zOj3Dd6sU0YV-6" value="Number&#xa;DepartureDate Time&#xa;ArrivalDate Time&#xa;Duration&#xa;Distance&#xa;Airline" style="align=left;strokeColor=none;fillColor=none;spacingLeft=4;fontSize=12;verticalAlign=top;resizable=0;rotatable=0;part=1;" vertex="1" parent="wGkAwri0zOj3Dd6sU0YV-5">
          <mxGeometry y="30" width="160" height="90" as="geometry" />
        </mxCell>
        <mxCell id="wGkAwri0zOj3Dd6sU0YV-7" value="" style="edgeStyle=entityRelationEdgeStyle;fontSize=12;html=1;endArrow=ERmany;startArrow=ERmany;exitX=1.006;exitY=0.611;exitDx=0;exitDy=0;exitPerimeter=0;entryX=-0.012;entryY=0.189;entryDx=0;entryDy=0;entryPerimeter=0;" edge="1" parent="wGkAwri0zOj3Dd6sU0YV-1" target="wGkAwri0zOj3Dd6sU0YV-6">
          <mxGeometry width="100" height="100" relative="1" as="geometry">
            <mxPoint x="190.00000000000003" y="194.99" as="sourcePoint" />
            <mxPoint x="369.04" y="190" as="targetPoint" />
          </mxGeometry>
        </mxCell>
        <mxCell id="wGkAwri0zOj3Dd6sU0YV-8" value="Books" style="edgeLabel;html=1;align=center;verticalAlign=middle;resizable=0;points=[];" vertex="1" connectable="0" parent="wGkAwri0zOj3Dd6sU0YV-7">
          <mxGeometry x="-0.0272" relative="1" as="geometry">
            <mxPoint as="offset" />
          </mxGeometry>
        </mxCell>
        <mxCell id="wGkAwri0zOj3Dd6sU0YV-12" value="Airport" style="swimlane;childLayout=stackLayout;horizontal=1;startSize=30;horizontalStack=0;rounded=1;fontSize=14;fontStyle=0;strokeWidth=2;resizeParent=0;resizeLast=1;shadow=0;dashed=0;align=center;" vertex="1" parent="wGkAwri0zOj3Dd6sU0YV-1">
          <mxGeometry x="190" y="350" width="160" height="120" as="geometry" />
        </mxCell>
        <mxCell id="wGkAwri0zOj3Dd6sU0YV-13" value="IATACode&#xa;Name&#xa;City&#xa;State&#xa;" style="align=left;strokeColor=none;fillColor=none;spacingLeft=4;fontSize=12;verticalAlign=top;resizable=0;rotatable=0;part=1;" vertex="1" parent="wGkAwri0zOj3Dd6sU0YV-12">
          <mxGeometry y="30" width="160" height="90" as="geometry" />
        </mxCell>
        <mxCell id="wGkAwri0zOj3Dd6sU0YV-14" value="" style="edgeStyle=entityRelationEdgeStyle;fontSize=12;html=1;endArrow=ERmany;startArrow=ERmany;exitX=1;exitY=0.5;exitDx=0;exitDy=0;entryX=0;entryY=0.5;entryDx=0;entryDy=0;" edge="1" parent="wGkAwri0zOj3Dd6sU0YV-1" source="wGkAwri0zOj3Dd6sU0YV-13" target="wGkAwri0zOj3Dd6sU0YV-6">
          <mxGeometry width="100" height="100" relative="1" as="geometry">
            <mxPoint x="370" y="340" as="sourcePoint" />
            <mxPoint x="470" y="240" as="targetPoint" />
          </mxGeometry>
        </mxCell>
        <mxCell id="wGkAwri0zOj3Dd6sU0YV-15" value="Departs/Arrives at" style="edgeLabel;html=1;align=center;verticalAlign=middle;resizable=0;points=[];" vertex="1" connectable="0" parent="wGkAwri0zOj3Dd6sU0YV-14">
          <mxGeometry x="-0.2621" relative="1" as="geometry">
            <mxPoint as="offset" />
          </mxGeometry>
        </mxCell>
        <mxCell id="wGkAwri0zOj3Dd6sU0YV-18" value="Booking" style="swimlane;childLayout=stackLayout;horizontal=1;startSize=30;horizontalStack=0;rounded=1;fontSize=14;fontStyle=0;strokeWidth=2;resizeParent=0;resizeLast=1;shadow=0;dashed=0;align=center;" vertex="1" parent="wGkAwri0zOj3Dd6sU0YV-1">
          <mxGeometry x="190" y="30" width="160" height="120" as="geometry" />
        </mxCell>
        <mxCell id="wGkAwri0zOj3Dd6sU0YV-19" value="TicketNumber&#xa;Price&#xa;FlightClass" style="align=left;strokeColor=none;fillColor=none;spacingLeft=4;fontSize=12;verticalAlign=top;resizable=0;rotatable=0;part=1;" vertex="1" parent="wGkAwri0zOj3Dd6sU0YV-18">
          <mxGeometry y="30" width="160" height="90" as="geometry" />
        </mxCell>
      </root>
    </mxGraphModel>
  </diagram>
</mxfile>
